<?xml version="1.0" encoding="UTF-8"?>
<svg version="1.1" xmlns="http://www.w3.org/2000/svg" width="2000" height="2000">
<path d="M0 0 C2.33403434 0.23228959 4.6690167 0.45079336 7.00469971 0.66583252 C58.75280757 5.46307341 109.91014963 14.53025862 160.28936768 27.22784424 C160.97323547 27.39993408 161.65710327 27.57202393 162.36169434 27.74932861 C181.543655 32.59017271 200.46335105 38.15454304 219.28936768 44.22784424 C220.60021928 44.64831923 221.91109201 45.06872836 223.22198486 45.48907471 C286.83642274 65.93970311 349.81759029 92.56593872 407.42315674 126.54229736 C410.12137579 128.12905242 412.82942277 129.69789702 415.54116821 131.26139832 C429.61601925 139.37875923 443.51383816 147.68966405 457.02911377 156.71905518 C459.28296969 158.22357339 461.54484108 159.71529486 463.80889893 161.20440674 C491.34929219 179.36800886 517.93905457 198.83786654 543.46466064 219.73516846 C545.07160463 221.04970626 546.68215958 222.35982726 548.29327393 223.66925049 C558.35833157 231.85901355 568.25697461 240.19433089 577.81671143 248.97003174 C579.90804706 250.87965575 582.02195632 252.75115676 584.16436768 254.60284424 C592.48165848 261.84418161 600.51715412 269.37469281 608.25811768 277.22784424 C610.14649243 279.08716708 612.0857952 280.82172508 614.10186768 282.54034424 C621.78225547 289.14547774 628.89131498 296.45654021 635.44952393 304.16925049 C637.79433063 306.79284525 640.28587405 309.25752894 642.78936768 311.72784424 C646.4934656 315.38776427 650.04224536 319.11728219 653.42218018 323.07940674 C655.31723683 325.25991126 657.2688886 327.38166955 659.23419189 329.49884033 C663.97318407 334.6067264 668.48193847 339.82789651 672.85186768 345.25909424 C675.71863571 348.75067069 678.68730086 352.1429397 681.66436768 355.54034424 C687.27457453 361.96868936 692.6040485 368.56665635 697.81329346 375.32208252 C699.40808247 377.38111709 701.01749059 379.42813313 702.62921143 381.47393799 C710.24600798 391.16283424 717.59935924 401.00757416 724.74102783 411.05157471 C726.22433548 413.13643821 727.71517418 415.21571944 729.20733643 417.29425049 C747.18707671 442.4409741 763.79063789 468.48883638 779.28936768 495.22784424 C779.82175049 496.14549561 780.3541333 497.06314697 780.90264893 498.00860596 C789.18940558 512.34661041 796.96489778 526.92121546 804.48028564 541.67706299 C805.69143686 544.05425371 806.90564295 546.42951666 808.12579346 548.80206299 C848.43474276 627.24691867 876.95814319 712.12320585 909.60186768 900.16534424 C909.71517929 901.2587764 909.71517929 901.2587764 909.83078003 902.3742981 C910.4023806 907.98601937 910.86713269 913.60302325 911.28936768 919.22784424 C911.37550323 920.36629791 911.46163879 921.50475159 911.55038452 922.67770386 C913.27955617 946.34243481 913.65328662 969.94835276 913.60722351 993.67043686 C913.60178424 996.58505126 913.59941641 999.49965755 913.59735107 1002.41427612 C913.56724216 1029.67956945 913.24192522 1056.80591232 910.51397705 1083.95788574 C910.2868631 1086.25315606 910.07499414 1088.54937536 909.86749268 1090.84649658 C903.38946139 1162.13406141 889.08732053 1233.09153382 866.95611572 1301.17150879 C866.28397645 1303.24447146 865.61880374 1305.31955666 864.9553833 1307.39532471 C850.20105985 1353.47997037 831.73746985 1398.24473027 810.12823486 1441.53546143 C808.3529013 1445.09289128 806.60486802 1448.66333309 804.85968018 1452.23565674 C797.84058685 1466.53959972 790.29420562 1480.45412068 782.28936768 1494.22784424 C781.60580747 1495.4101299 780.92255123 1496.59259135 780.23956299 1497.77520752 C772.35816358 1511.41390225 764.45283638 1525.01797739 755.69659424 1538.11993408 C754.12162421 1540.47911022 752.56086879 1542.8473968 751.00030518 1545.21612549 C732.24935371 1573.60119555 712.32981324 1601.08347703 690.77764893 1627.40753174 C689.47527389 1629.00046288 688.17870736 1630.59813944 686.88311768 1632.19659424 C678.62455521 1642.37018568 670.09592804 1652.31005809 661.28936768 1662.01300049 C659.49333239 1664.00196926 657.72983464 1666.01347618 655.97686768 1668.04034424 C648.70730564 1676.37251047 641.16388477 1684.43457025 633.28936768 1692.19659424 C631.43004484 1694.084969 629.69548683 1696.02427177 627.97686768 1698.04034424 C621.37173417 1705.72073203 614.06067171 1712.82979154 606.34796143 1719.38800049 C603.72436666 1721.7328072 601.25968297 1724.22435062 598.78936768 1726.72784424 C595.12944764 1730.43194216 591.39992972 1733.98072192 587.43780518 1737.36065674 C585.25730065 1739.2557134 583.13554236 1741.20736516 581.01837158 1743.17266846 C575.91048552 1747.91166063 570.68931541 1752.42041503 565.25811768 1756.79034424 C561.76654123 1759.65711227 558.37427221 1762.62577742 554.97686768 1765.60284424 C548.54852255 1771.21305109 541.95055556 1776.54252506 535.19512939 1781.75177002 C533.13609482 1783.34655903 531.08907878 1784.95596715 529.04327393 1786.56768799 C519.35437768 1794.18448455 509.50963776 1801.53783581 499.46563721 1808.67950439 C497.3807737 1810.16281204 495.30149247 1811.65365074 493.22296143 1813.14581299 C468.07623781 1831.12555327 442.02837553 1847.72911446 415.28936768 1863.22784424 C414.37171631 1863.76022705 413.45406494 1864.29260986 412.50860596 1864.84112549 C398.15662106 1873.13596225 383.56729582 1880.91543015 368.79620361 1888.43634033 C365.34045356 1890.20174648 361.89677374 1891.98916749 358.45343018 1893.77862549 C326.42098559 1910.27322691 293.04419216 1924.1271327 259.22796631 1936.51544189 C257.32421237 1937.2150394 255.42314092 1937.92146858 253.52276611 1938.63018799 C175.29404516 1967.7059853 92.759596 1985.35149324 9.78936768 1993.54034424 C9.03222473 1993.61588531 8.27508179 1993.69142639 7.49499512 1993.76925659 C1.76516929 1994.3307433 -3.96977319 1994.79496196 -9.71063232 1995.22784424 C-10.82305298 1995.3139798 -11.93547363 1995.40011536 -13.081604 1995.48886108 C-36.4167311 1997.2472877 -59.68836253 1997.59180969 -83.08314514 1997.54590225 C-86.00515803 1997.54025823 -88.92716511 1997.53744009 -91.84918213 1997.53482056 C-119.04735189 1997.49937653 -146.13662079 1997.27137226 -173.21765137 1994.48431396 C-175.85413162 1994.2130815 -178.49151802 1993.95210692 -181.12908936 1993.69171143 C-252.25715613 1986.58453642 -322.62326537 1972.99423159 -390.67047119 1950.88812256 C-392.71085897 1950.22777089 -394.75371401 1949.57569171 -396.79754639 1948.92608643 C-430.17314859 1938.30335278 -462.76857533 1925.5816994 -494.71063232 1911.22784424 C-495.76299072 1910.75878662 -496.81534912 1910.289729 -497.89959717 1909.80645752 C-525.586492 1897.43293727 -552.99277322 1884.01641251 -579.17645264 1868.70001221 C-581.74538506 1867.20765551 -584.32998584 1865.74687349 -586.92156982 1864.29425049 C-632.76476125 1838.55268826 -676.23333834 1808.0030167 -716.89031982 1774.71612549 C-718.48325097 1773.41375045 -720.08092752 1772.11718392 -721.67938232 1770.82159424 C-731.85297377 1762.56303177 -741.79284618 1754.0344046 -751.49578857 1745.22784424 C-753.48475734 1743.43180895 -755.49626427 1741.66831121 -757.52313232 1739.91534424 C-765.85529855 1732.64578221 -773.91735833 1725.10236133 -781.67938232 1717.22784424 C-783.56775708 1715.3685214 -785.50705985 1713.63396339 -787.52313232 1711.91534424 C-795.20352012 1705.31021074 -802.31257962 1697.99914827 -808.87078857 1690.28643799 C-811.21559528 1687.66284322 -813.7071387 1685.19815954 -816.21063232 1682.72784424 C-819.91473025 1679.0679242 -823.46351001 1675.33840628 -826.84344482 1671.37628174 C-828.73850148 1669.19577721 -830.69015325 1667.07401892 -832.65545654 1664.95684814 C-837.39444871 1659.84896208 -841.90320312 1654.62779197 -846.27313232 1649.19659424 C-849.13990036 1645.70501779 -852.10856551 1642.31274877 -855.08563232 1638.91534424 C-860.69583917 1632.48699912 -866.02531315 1625.88903213 -871.23455811 1619.13360596 C-872.82934712 1617.07457138 -874.43875523 1615.02755534 -876.05047607 1612.98175049 C-884.2190093 1602.59102122 -892.05289251 1591.99930177 -899.71063232 1581.22784424 C-900.73009788 1579.80201602 -901.74962833 1578.37623419 -902.76922607 1576.95050049 C-909.96748305 1566.85195795 -916.89539589 1556.58793403 -923.71063232 1546.22784424 C-924.36467041 1545.24026123 -924.36467041 1545.24026123 -925.03192139 1544.23272705 C-944.96446249 1514.11345632 -962.6316863 1482.69184264 -979.02850342 1450.52471924 C-980.12850649 1448.36877708 -981.23282551 1446.21503015 -982.34197998 1444.06378174 C-1025.48097057 1360.38121841 -1055.28747449 1268.39441113 -1083.02313232 1094.22784424 C-1083.0986734 1093.49461945 -1083.17421448 1092.76139465 -1083.25204468 1092.00595093 C-1083.81782217 1086.41902712 -1084.28182548 1080.82682799 -1084.71063232 1075.22784424 C-1084.79676788 1074.12783081 -1084.88290344 1073.02781738 -1084.97164917 1071.89447021 C-1086.76822647 1048.2403625 -1087.07406938 1024.64271074 -1087.02869034 1000.92780304 C-1087.02304934 997.93380174 -1087.02022935 994.9398061 -1087.01760864 991.94580078 C-1086.9826173 964.4524482 -1086.79578031 937.06436368 -1083.96386719 909.69036865 C-1083.69686897 907.09400567 -1083.44294337 904.49657009 -1083.19061279 901.89874268 C-1074.66261714 815.05060774 -1055.22687352 729.68529706 -983.54949951 552.92022705 C-981.77416595 549.3627972 -980.02613267 545.79235538 -978.28094482 542.22003174 C-971.26185149 527.91608876 -963.71547027 514.0015678 -955.71063232 500.22784424 C-955.02707212 499.04555857 -954.34381587 497.86309713 -953.66082764 496.68048096 C-945.77942822 483.04178623 -937.87410103 469.43771108 -929.11785889 456.33575439 C-927.54288886 453.97657826 -925.98213344 451.60829168 -924.42156982 449.23956299 C-905.67178324 420.85625632 -885.75342511 393.37555699 -864.20330811 367.05255127 C-862.8887703 365.44560728 -861.57864931 363.83505233 -860.26922607 362.22393799 C-852.07946302 352.15888035 -843.74414567 342.2602373 -834.96844482 332.70050049 C-833.05882081 330.60916485 -831.18731981 328.4952556 -829.33563232 326.35284424 C-822.09429495 318.03555344 -814.56378376 310.00005779 -806.71063232 302.25909424 C-804.85130949 300.37071948 -803.11675148 298.43141671 -801.39813232 296.41534424 C-794.79299882 288.73495644 -787.48193635 281.62589694 -779.76922607 275.06768799 C-777.14563131 272.72288128 -774.68094762 270.23133786 -772.21063232 267.72784424 C-768.55071229 264.02374632 -764.82119437 260.47496655 -760.85906982 257.09503174 C-758.6785653 255.19997508 -756.55680701 253.24832332 -754.43963623 251.28302002 C-749.33175017 246.54402785 -744.11058005 242.03527345 -738.67938232 237.66534424 C-735.18780588 234.79857621 -731.79553686 231.82991106 -728.39813232 228.85284424 C-721.9697872 223.24263739 -715.37182021 217.91316341 -708.61639404 212.70391846 C-706.55735947 211.10912945 -704.51034343 209.49972133 -702.46453857 207.88800049 C-692.77564233 200.27120393 -682.93090241 192.91785267 -672.88690186 185.77618408 C-670.80203835 184.29287644 -668.72275712 182.80203774 -666.64422607 181.30987549 C-641.49675347 163.32959968 -615.44730757 146.73186945 -588.71063232 131.22784424 C-587.80361572 130.70077881 -586.89659912 130.17371338 -585.96209717 129.63067627 C-570.97589034 120.95304555 -555.69896236 112.88998469 -540.26824951 105.04034424 C-536.93407502 103.34168164 -533.60719261 101.62945892 -530.28094482 99.91534424 C-448.312282 57.97179147 -358.52656346 29.37889084 -178.01574707 0.44073486 C-175.73134357 0.22975704 -173.44882597 0.00405391 -171.16619873 -0.22528076 C-115.07394534 -5.77104526 -56.0769595 -5.64535163 0 0 Z " fill="#141726" transform="translate(1086.7106323242188,2.77215576171875)"/>
<path d="M0 0 C1.0335965 0.17755829 1.0335965 0.17755829 2.08807373 0.35870361 C18.92817998 3.25861655 35.53012049 7.12069378 52.14599609 11.08837891 C56.03724559 12.00881002 59.93320022 12.90539169 63.83203125 13.79296875 C77.51129342 16.91693168 91.05480335 20.2550136 104.50244141 24.26171875 C108.90813646 25.56404738 113.33029624 26.808715 117.75 28.0625 C121.16903907 29.03355662 124.58530552 30.01377099 128 31 C129.22565674 31.35312256 130.45131348 31.70624512 131.71411133 32.07006836 C185.84623478 47.76558182 238.94403487 67.46108974 290.10150146 91.12237549 C292.09352527 92.0432342 294.08699547 92.96091392 296.08056641 93.87841797 C374.61771986 130.07524316 448.21137407 175.80507559 515.19580078 230.52783203 C516.78273046 231.82271511 518.37348737 233.11290478 519.96484375 234.40234375 C530.62483343 243.05869366 541.02733013 251.98361374 551.0859375 261.33203125 C553.3360113 263.39208542 555.60580801 265.41149754 557.90625 267.4140625 C570.67156895 278.55030934 582.64122674 290.53808505 594.625 302.5 C595.28324768 303.15565948 595.94149536 303.81131897 596.61968994 304.48684692 C609.25366254 317.08165204 609.25366254 317.08165204 614.48681641 323.24169922 C617.32807286 326.54320438 620.37293494 329.65789968 623.375 332.8125 C628.45735538 338.189015 633.28394154 343.6387559 637.89453125 349.42578125 C640.17200846 352.21030348 642.56312008 354.85413803 645 357.5 C649.89312765 362.8297452 654.47673321 368.35508035 659 374 C659.95948265 375.19022734 660.9191264 376.38032481 661.87890625 377.5703125 C668.36502018 385.62834293 674.74839547 393.75850106 681 402 C681.45842285 402.60392578 681.9168457 403.20785156 682.38916016 403.83007812 C685.95295869 408.53356857 689.48228079 413.26198455 693 418 C693.71567139 418.9580957 693.71567139 418.9580957 694.44580078 419.93554688 C705.86970183 435.27120962 716.31855044 451.28813746 726.84326172 467.24633789 C727.8515318 468.77491619 728.86119291 470.30257675 729.87109375 471.83007812 C760.25316402 517.8577781 780.63711094 566.97571996 795.3125 619.984375 C796.45751959 624.10184501 797.6547118 628.19604834 798.91455078 632.27954102 C802.6838412 644.56352959 805.46475223 657.11573003 808.25146484 669.65185547 C808.85184041 672.33729269 809.47738626 675.01430664 810.11328125 677.69140625 C812.03104501 686.69853369 812.32713775 695.55988705 812.4375 704.75 C812.45997803 705.95857666 812.48245605 707.16715332 812.50561523 708.41235352 C812.46757519 722.68322268 808.25050931 735.47861383 798.5 746.0625 C784.5941954 759.15186532 765.58987802 766.81126153 747.8515625 773.04785156 C745.46992766 773.88557777 743.09412716 774.73845871 740.71875 775.59375 C739.17739401 776.14410005 737.63573801 776.69361075 736.09375 777.2421875 C735.04979065 777.61559769 735.04979065 777.61559769 733.98474121 777.99655151 C728.07243984 780.06870715 722.31948694 782 716 782 C715.72438232 781.09685059 715.44876465 780.19370117 715.16479492 779.26318359 C703.51829269 741.20666828 689.86169216 704.08305808 673 668 C672.56252441 667.06333496 672.12504883 666.12666992 671.67431641 665.16162109 C659.92979366 640.13358184 647.28230423 615.67823365 633 592 C632.4548877 591.09556152 631.90977539 590.19112305 631.34814453 589.25927734 C615.09193814 562.40650506 597.18807056 536.82595929 578 512 C577.46955078 511.31212402 576.93910156 510.62424805 576.39257812 509.91552734 C570.64454321 502.47476104 564.71671769 495.21924377 558.60546875 488.07421875 C556.24135813 485.30300845 553.96156042 482.47072811 551.6875 479.625 C546.81577899 473.62971091 541.52094199 468.05652343 536.22265625 462.44140625 C533.85540483 459.92818672 531.55227524 457.37836276 529.3125 454.75 C525.72318631 450.57003976 521.78250156 446.75232505 517.84375 442.90625 C515.66170804 440.73309856 513.64773989 438.45582107 511.64453125 436.1171875 C508.07388128 431.99503698 504.206117 428.30483824 500.1875 424.625 C495.54151047 420.32553456 490.94520925 416.00723542 486.5 411.5 C483.13572521 408.09647534 479.68612335 404.88033501 476.05078125 401.76953125 C473.72433417 399.76213977 471.45807314 397.69533362 469.1875 395.625 C464.91338531 391.76660467 460.50555086 388.11773814 456.02734375 384.5 C453.21934654 382.18113778 450.47961414 379.80448099 447.74755859 377.39770508 C439.83685017 370.4369005 431.61403686 364.01003767 423.20019531 357.67236328 C420.21356939 355.40223594 417.26489928 353.08527881 414.31494141 350.76782227 C392.75393665 333.84572868 370.2252155 317.98603952 347.07470703 303.31542969 C344.95088804 301.96886147 342.83269964 300.61373646 340.71484375 299.2578125 C319.50702918 285.72396977 298.00410738 272.72074393 275.94580078 260.61914062 C273.17477423 259.09606354 270.41293382 257.55751182 267.65234375 256.015625 C216.84289107 227.84896544 163.74430585 204.36451208 109 185 C107.65183145 184.52073813 106.30368749 184.0414071 104.95556641 183.56201172 C89.16578645 177.95870225 73.38771241 172.76506479 57.15380859 168.57470703 C54.2802363 167.80794335 51.45489464 166.91370454 48.625 166 C20.56842117 157.23682692 -9.00171206 151.60823372 -38 147 C-39.25562744 146.79963135 -39.25562744 146.79963135 -40.53662109 146.59521484 C-53.98796276 144.46993955 -67.48642244 142.67943004 -81 141 C-82.91075317 140.75491699 -82.91075317 140.75491699 -84.86010742 140.50488281 C-95.20491307 139.20513329 -105.52417997 138.37136036 -115.9375 137.875 C-116.79673065 137.83363922 -117.6559613 137.79227844 -118.54122925 137.74966431 C-161.18203128 135.78119982 -204.53242531 135.3636384 -247 140 C-248.06238892 140.11598541 -248.06238892 140.11598541 -249.14624023 140.23431396 C-258.79079156 141.30288955 -268.3987883 142.59409391 -278 144 C-279.1235791 144.16113281 -280.2471582 144.32226562 -281.40478516 144.48828125 C-302.30096504 147.50012262 -323.41442826 150.57983372 -343.765625 156.30078125 C-347.26197737 157.0566352 -350.43353444 157.12220123 -354 157 C-378.71650828 96.58579192 -378.71650828 96.58579192 -368 70 C-365.97764178 66.06280135 -363.66073936 62.53302299 -361 59 C-360.42636719 58.23171875 -359.85273438 57.4634375 -359.26171875 56.671875 C-337.54762238 30.07559422 -293.83828067 17.04708371 -262.1953125 8.58740234 C-259.75110412 7.93340264 -257.3135376 7.25685517 -254.875 6.58203125 C-171.04939701 -16.2848876 -85.09389842 -14.74196292 0 0 Z " fill="#60E1CD" transform="translate(597,929)"/>
<path d="M0 0 C1.21076202 0.15205902 1.21076202 0.15205902 2.44598389 0.30718994 C18.41752958 2.32332588 34.3185744 4.62815259 50.0703125 7.984375 C54.81565977 8.98688568 59.58389181 9.82311326 64.36230469 10.65161133 C93.57691263 15.71848113 122.51477864 21.90658377 151.28027344 29.08154297 C155.95022864 30.2346259 160.63134716 31.3367245 165.31396484 32.43701172 C175.26488895 34.78100717 185.07738755 37.37396123 194.85400391 40.35693359 C198.00344705 41.30069164 201.16837128 42.18738058 204.33300781 43.07861328 C216.58698325 46.53150512 228.7512451 50.26038205 240.90698242 54.04296875 C242.92331373 54.6668553 244.94163398 55.28436058 246.9621582 55.89453125 C323.69744115 79.13019307 399.58752032 110.56506411 470 149 C471.04188477 149.56477051 472.08376953 150.12954102 473.15722656 150.71142578 C491.01833445 160.4048031 508.60437059 170.48890551 526 181 C527.07846191 181.64936523 528.15692383 182.29873047 529.26806641 182.96777344 C546.17686653 193.17044034 562.65487817 203.92716066 579 215 C579.90395508 215.61004883 580.80791016 216.22009766 581.73925781 216.84863281 C599.82970211 229.06366663 617.37429198 241.92633016 634.68359375 255.22265625 C636.67066537 256.74730648 638.66184082 258.26622262 640.65625 259.78125 C648.63226971 265.8619779 656.41987614 272.15856642 664.1796875 278.51171875 C665.77261865 279.81409379 667.3702952 281.11066032 668.96875 282.40625 C674.66794718 287.03265713 680.25996893 291.77091038 685.81567383 296.56762695 C689.26071196 299.53521879 692.75290156 302.41960609 696.3125 305.25 C702.8483648 310.5483046 708.8701485 316.38990489 714.96484375 322.18359375 C718.13923084 325.19863442 721.35484483 328.15181227 724.625 331.0625 C727.93482893 334.00891866 731.08705597 337.05512093 734.18727112 340.2197113 C735.98358822 341.98388192 737.84151211 343.62468002 739.75366211 345.26196289 C743.76704389 348.75382756 747.56201079 352.41683769 751.31640625 356.18359375 C751.97656235 356.84279312 752.63671844 357.50199249 753.31687927 358.1811676 C754.70035506 359.56396835 756.08259083 360.94801076 757.46362305 362.33325195 C759.55731669 364.43230343 761.65629874 366.5259594 763.75585938 368.61914062 C765.10969571 369.97363786 766.46322175 371.32844531 767.81640625 372.68359375 C768.43326797 373.29843124 769.0501297 373.91326874 769.6856842 374.54673767 C773.43762033 378.31857426 776.99783022 382.20925519 780.46495056 386.24476624 C782.53477751 388.61148489 784.74801011 390.807273 787 393 C790.52412505 396.487029 793.86671689 400.04056299 797.08984375 403.8046875 C799.50833884 406.58422583 802.00299604 409.29127161 804.5 412 C808.73795205 416.60770626 812.91565767 421.25556194 817 426 C817.43425293 426.50257324 817.86850586 427.00514648 818.31591797 427.52294922 C824.14225386 434.26810587 829.9133587 441.04815926 835.53125 447.96875 C837.43841775 450.3104623 839.35524798 452.64259687 841.28125 454.96875 C848.65572311 463.87758438 855.92703383 472.8497792 863 482 C863.49822266 482.64372559 863.99644531 483.28745117 864.50976562 483.95068359 C872.59344675 494.4126582 880.49938805 504.9999724 888.29882812 515.67529297 C889.9067945 517.87263164 891.52304262 520.06364259 893.140625 522.25390625 C924.74455641 565.26470288 948.09553015 610.86078509 965.4375 661.3125 C965.68316711 662.02649963 965.92883423 662.74049927 966.1819458 663.47613525 C969.75302295 673.90170247 972.95471775 684.40993395 976 695 C976.50617633 696.73317052 977.012624 698.46626186 977.51953125 700.19921875 C1010.17316665 813.10582212 1010.17316665 813.10582212 981.5625 867.3125 C974.60321373 879.86742861 965.96134131 890.71367876 956 901 C955.52933105 901.49113281 955.05866211 901.98226562 954.57373047 902.48828125 C948.6644664 908.64317257 948.6644664 908.64317257 946 911 C945.34 911 944.68 911 944 911 C941.55130698 902.83046663 939.15652643 894.65381586 936.96118164 886.41210938 C926.58147465 847.55858206 912.81735116 809.94380446 897 773 C896.4853418 771.79424316 895.97068359 770.58848633 895.44042969 769.34619141 C882.43650875 739.09757505 867.73397895 709.36083446 851 681 C849.70271027 678.77367911 848.40585894 676.54710273 847.109375 674.3203125 C839.11428286 660.63198737 830.83417823 647.16480956 822 634 C821.4033252 633.10974121 820.80665039 632.21948242 820.19189453 631.30224609 C804.29916256 607.65554908 787.53020375 584.77708793 769.44433594 562.76025391 C768.14855163 561.18104416 766.85902202 559.59670714 765.5703125 558.01171875 C757.37644795 547.93705611 749.03370121 538.03084335 740.25 528.46484375 C738.38233297 526.41884046 736.55630403 524.34982843 734.75 522.25 C723.22793407 509.05311322 710.83460818 496.67605038 698.43896484 484.30859375 C696.07645357 481.95059186 693.71732488 479.58931697 691.36004066 477.22609711 C689.0679898 474.92953761 686.77210505 472.63681854 684.4765625 470.34375 C683.22632797 469.09047913 683.22632797 469.09047913 681.95083618 467.81188965 C677.6655121 463.5435551 673.31367544 459.4185825 668.72201538 455.48046875 C666.08862979 453.21646744 663.55076271 450.85668294 661 448.5 C653.3095037 441.42507939 645.41029197 434.62541869 637.421875 427.890625 C635.19599422 426.01340659 632.97736615 424.12822887 630.765625 422.234375 C623.5665616 416.08069115 616.21301491 410.16418114 608.73535156 404.35302734 C607.06531597 403.05092587 605.402384 401.74039606 603.7421875 400.42578125 C587.46545996 387.54317233 570.92709926 375.01596986 554 363 C553.24493164 362.4622998 552.48986328 361.92459961 551.71191406 361.37060547 C531.53363415 347.02583666 510.89632841 333.27644518 490 320 C488.74944824 319.20408447 488.74944824 319.20408447 487.47363281 318.39208984 C443.91602157 290.73981993 398.9437077 265.45775378 353 242 C352.03096741 241.50469788 352.03096741 241.50469788 351.0423584 240.99938965 C299.26981524 214.5555966 245.97469001 192.24861158 191.08096313 173.12411499 C186.66123046 171.58375258 182.24871027 170.02440618 177.83984375 168.453125 C165.11072006 163.94058621 152.36010457 159.9967609 139.2890625 156.60253906 C136.26121215 155.80553238 133.25565868 154.93915045 130.25 154.0625 C128.52239503 153.57005185 126.79474162 153.07776912 125.06640625 152.58789062 C123.56287738 152.16013808 122.0604107 151.72864661 120.55859375 151.29492188 C78.65840559 139.26745779 35.24672089 131.30042056 -8 126 C-8.92288315 125.88575684 -9.8457663 125.77151367 -10.7966156 125.65380859 C-27.81424232 123.56307853 -44.83186807 121.97569205 -61.9375 120.8125 C-63.20491028 120.72628387 -64.47232056 120.64006775 -65.77813721 120.55123901 C-158.26481053 114.40528722 -250.49381395 124.23288263 -340.28369141 146.66137695 C-341.56889679 146.9808429 -341.56889679 146.9808429 -342.88006592 147.3067627 C-344.48618384 147.70650865 -346.09158863 148.10913597 -347.69610596 148.51525879 C-352.12045103 149.6153768 -356.47527724 150.43394323 -361 151 C-361.30499009 145.15044655 -360.27200455 140.33080411 -358.5625 134.75 C-358.29808105 133.88246094 -358.03366211 133.01492188 -357.76123047 132.12109375 C-343.85968634 88.43278452 -310.26570292 61.06026076 -270.99609375 40.54541016 C-254.08208337 31.82102247 -236.99134628 24.22442545 -219 18 C-217.83597656 17.5963623 -216.67195312 17.19272461 -215.47265625 16.77685547 C-206.81543882 13.82931117 -198.11292858 11.27165103 -189.25 9 C-188.25654068 8.7452037 -188.25654068 8.7452037 -187.24301147 8.48526001 C-164.42056319 2.66409747 -141.47778854 -1.05376834 -118 -3 C-116.87424561 -3.09498779 -115.74849121 -3.18997559 -114.58862305 -3.2878418 C-76.51193474 -6.08748692 -37.84741597 -4.80697617 0 0 Z " fill="#86E7A5" transform="translate(611,652)"/>
<path d="M0 0 C2.62504728 0.42840772 5.25014164 0.84589467 7.87890625 1.25 C27.62708912 4.28680368 47.03029191 8.01055858 66.43066406 12.81005859 C69.33760487 13.51856502 72.24882173 14.18877664 75.16992188 14.8359375 C90.26875789 18.20340751 104.95632407 22.82641325 119.66210938 27.59765625 C120.37570618 27.82900269 121.08930298 28.06034912 121.82452393 28.29870605 C162.15806269 41.39491937 201.33407647 56.42829238 239.66210938 74.59765625 C240.82452148 75.14534668 241.98693359 75.69303711 243.18457031 76.25732422 C269.05454588 88.45548605 294.08255643 101.96657321 318.66210938 116.59765625 C320.02239258 117.40009766 320.02239258 117.40009766 321.41015625 118.21875 C352.2966816 136.46075559 381.89588288 156.91340299 410.30761719 178.78662109 C412.36717449 180.37079737 414.43102991 181.949017 416.49804688 183.5234375 C427.26801821 191.73748048 437.66214997 200.37983809 447.97070312 209.16064453 C449.65503544 210.59164627 451.34557217 212.0150266 453.03710938 213.4375 C461.49072946 220.57616618 469.58440349 228.04906535 477.61230469 235.66113281 C479.66988854 237.6050055 481.73814771 239.53678109 483.81054688 241.46484375 C504.47196074 260.69466611 504.47196074 260.69466611 513.02148438 270.73828125 C514.82358727 272.78066453 516.72149885 274.68667336 518.66210938 276.59765625 C522.54250049 280.43370004 526.10934475 284.4594173 529.66210938 288.59765625 C530.60658758 289.67911461 531.55197917 290.75977563 532.49804688 291.83984375 C545.15222972 306.31127848 557.30151745 321.08685781 568.66210938 336.59765625 C569.17596191 337.29439453 569.68981445 337.99113281 570.21923828 338.70898438 C592.01000971 368.2816954 611.55279163 399.34492418 627.59765625 432.41552734 C628.78737392 434.85444856 629.99882304 437.28209888 631.20898438 439.7109375 C645.41117755 468.49354132 655.99287071 498.47246734 663.66210938 529.59765625 C664.07904053 531.27384033 664.07904053 531.27384033 664.50439453 532.98388672 C665.35602081 536.4158781 666.19870488 539.84991268 667.03710938 543.28515625 C667.30015869 544.35475586 667.56320801 545.42435547 667.83422852 546.52636719 C668.07391357 547.52313477 668.31359863 548.51990234 668.56054688 549.546875 C668.77372559 550.42690186 668.9869043 551.30692871 669.20654297 552.21362305 C669.66210938 554.59765625 669.66210938 554.59765625 669.66210938 558.59765625 C666.73867605 559.57213402 664.29528975 559.92293615 661.23876953 560.23022461 C660.12555328 560.34381821 659.01233704 560.4574118 657.86538696 560.57444763 C656.65619598 560.69425491 655.447005 560.81406219 654.20117188 560.9375 C652.94565521 561.06451797 651.69013855 561.19153595 650.39657593 561.32240295 C647.04129587 561.66112837 643.68573862 561.99681131 640.33001709 562.33111572 C636.99772564 562.66393668 633.66588745 563.00120388 630.33398438 563.33789062 C618.05335979 564.57573407 605.77157759 565.79923546 593.48184204 566.94358826 C589.3966735 567.32609804 585.31669657 567.73874054 581.23803711 568.18579102 C571.03095665 569.30344066 560.7946642 569.94622169 550.52923584 570.16986084 C548.52987278 570.22123621 546.53162742 570.31148791 544.53369141 570.40283203 C533.92510228 570.53268849 528.49413578 567.13803955 520.95825195 559.97900391 C519.61811094 558.58683915 518.38663255 557.0925287 517.16210938 555.59765625 C516.49211914 554.78035034 516.49211914 554.78035034 515.80859375 553.9465332 C510.84347164 547.77571972 506.42725288 541.21687373 502.02832031 534.63720703 C486.44697277 511.37656061 469.80499235 488.96157767 452.05908203 467.31054688 C450.19696706 465.02732446 448.36623708 462.71984907 446.53710938 460.41015625 C439.5383483 451.64328712 432.23423168 443.14042613 424.68945312 434.83984375 C422.92243738 432.88557201 421.19297408 430.90705888 419.47460938 428.91015625 C408.9880186 416.9139643 397.79729188 405.57018023 386.51904297 394.32421875 C384.26476767 392.07536831 382.01597561 389.82113177 379.76757812 387.56640625 C378.30826367 386.10775173 376.84863952 384.64940698 375.38867188 383.19140625 C374.73017242 382.53088257 374.07167297 381.87035889 373.39321899 381.18981934 C369.53227379 377.34804259 365.5634639 373.68636467 361.43534851 370.13278198 C358.84672509 367.89176308 356.35501773 365.55636529 353.84960938 363.22265625 C349.20172396 358.92890245 344.4179459 354.86233785 339.48632812 350.89453125 C336.99993168 348.8723997 334.55943422 346.80617555 332.13037109 344.71582031 C324.64788856 338.29047062 316.87519057 332.29010569 308.99804688 326.35839844 C306.55859016 324.51962735 304.12584947 322.67219356 301.69335938 320.82421875 C292.13457372 313.58346618 282.48402495 306.53761485 272.52832031 299.85205078 C270.7060365 298.62718236 268.89067877 297.39260031 267.07617188 296.15625 C204.69778674 253.865099 136.77229924 222.69035018 65.88476562 197.78125 C65.06155319 197.49137711 64.23834076 197.20150421 63.3901825 196.90284729 C57.22782225 194.75132725 51.01454545 192.89695851 44.71875 191.17382812 C42.31252046 190.49971824 39.91720706 189.79258279 37.52148438 189.08203125 C-7.12384087 175.84616678 -52.11223925 166.36556938 -98.07788086 159.11474609 C-100.19745389 158.77854781 -102.31446098 158.42559716 -104.42797852 158.05322266 C-116.13635446 156.13062138 -127.93693302 155.97592126 -139.77539062 155.59765625 C-186.46172021 154.10347027 -186.46172021 154.10347027 -197.90039062 143.09375 C-216.36338021 123.30586996 -226.66662512 96.40914428 -236.50476074 71.68945312 C-237.3885641 69.47042685 -238.27545702 67.25265493 -239.16308594 65.03515625 C-239.47521027 64.25537415 -239.78733459 63.47559204 -240.10891724 62.67218018 C-240.42424408 61.88446228 -240.73957092 61.09674438 -241.06445312 60.28515625 C-242.92151982 55.64578883 -244.77647076 51.00565272 -246.61865234 46.36035156 C-247.18108145 44.94456861 -247.74373704 43.52887562 -248.30664062 42.11328125 C-248.5726004 41.44363342 -248.83856018 40.7739856 -249.11257935 40.08404541 C-250.84322624 35.75467204 -252.68048058 31.49444489 -254.69140625 27.28808594 C-255.33789062 25.59765625 -255.33789062 25.59765625 -255.33789062 22.59765625 C-241.30720336 16.70225892 -227.04340682 12.46788381 -212.33789062 8.59765625 C-211.32355957 8.3253418 -210.30922852 8.05302734 -209.26416016 7.77246094 C-186.25877288 1.61236533 -163.01282342 -1.97723126 -139.33789062 -4.40234375 C-138.32017578 -4.50820801 -137.30246094 -4.61407227 -136.25390625 -4.72314453 C-91.4063561 -9.19797125 -44.44423479 -7.26761072 0 0 Z " fill="#3EDAF1" transform="translate(518.337890625,1198.40234375)"/>
<path d="M0 0 C3.58410928 0.00533891 7.16809185 0.00002932 10.75219727 -0.00634766 C32.0930531 -0.01375038 53.41017447 0.4702017 74.66821289 2.44287109 C75.72673462 2.53949036 75.72673462 2.53949036 76.80664062 2.63806152 C134.00917584 7.88928595 192.51838884 17.85202907 247.32910156 35.33007812 C250.00531286 36.15729365 252.69325501 36.93895889 255.38414001 37.71688843 C267.20634871 41.14339404 278.90707859 44.93109193 290.60571289 48.75537109 C291.68436615 49.10763763 292.76301941 49.45990417 293.87435913 49.82284546 C311.37541584 55.548325 328.7280104 61.52458425 345.91821289 68.13037109 C347.58811279 68.76821533 347.58811279 68.76821533 349.29174805 69.41894531 C382.64090628 82.19759473 415.44437587 96.27938009 447.91821289 111.13037109 C448.62212158 111.45203247 449.32603027 111.77369385 450.05126953 112.10510254 C469.10686156 120.82460197 487.9143538 130.03142533 506.66821289 139.38037109 C507.66552429 139.87634796 508.66283569 140.37232483 509.69036865 140.8833313 C523.1448557 147.58307076 536.41597081 154.56035545 549.56976318 161.8326416 C551.62361904 162.96758152 553.68017105 164.09728551 555.73901367 165.22314453 C571.56839065 173.88729884 587.19622541 182.85895874 602.65649414 192.16699219 C604.7531047 193.42903875 606.85189007 194.68748317 608.95336914 195.94140625 C639.65619397 214.2811865 669.64336822 234.33287399 698.60571289 255.31787109 C699.335 255.84558105 700.06428711 256.37329102 700.81567383 256.91699219 C720.03756613 270.90207312 738.70822742 285.62164302 757.11401367 300.65820312 C758.70094335 301.9530862 760.29170026 303.24327588 761.88305664 304.53271484 C772.34455114 313.02787851 782.54933206 321.79913737 792.48071289 330.90771484 C794.56094014 332.80458873 796.66378187 334.66430052 798.79321289 336.50537109 C804.01238025 341.04837103 809.07076616 345.76574041 814.13647461 350.47802734 C815.86097511 352.07729007 817.5938833 353.66695243 819.32836914 355.25537109 C828.603947 363.79943252 837.55605298 372.66063962 846.48071289 381.56787109 C847.09334991 382.17791992 847.70598694 382.78796875 848.33718872 383.41650391 C854.26277783 389.32233675 860.15351731 395.20266543 865.58203125 401.57592773 C867.2637862 403.53239288 869.0628373 405.33897398 870.91821289 407.13037109 C874.11082601 410.28017139 877.08982568 413.54256598 880.01196289 416.94287109 C882.22766937 419.48548509 884.50919881 421.96147308 886.79321289 424.44287109 C890.84342581 428.88287894 894.67355411 433.44971391 898.44555664 438.12646484 C901.32704467 441.62704035 904.30553668 445.03305642 907.29321289 448.44287109 C912.95980911 454.93178574 918.32886082 461.60555738 923.59301758 468.42285156 C924.89134464 470.09575124 926.20260497 471.75743641 927.51977539 473.41552734 C939.83859323 488.93234596 951.66536302 504.82389479 962.91821289 521.13037109 C963.33876953 521.7359082 963.75932617 522.34144531 964.19262695 522.96533203 C1005.32969148 582.40725029 1031.55073713 651.40062368 1058.29296875 718.09423828 C1059.24886701 720.47622765 1060.2173124 722.85066779 1061.20166016 725.22119141 C1063.31659936 730.33380156 1064.91146674 735.35354884 1066.10571289 740.75537109 C1066.27006836 741.45404297 1066.43442383 742.15271484 1066.60375977 742.87255859 C1068.44443677 750.92086291 1069.06979953 758.71226626 1069.05102539 766.94677734 C1069.05234467 767.87343201 1069.05366394 768.80008667 1069.05502319 769.75482178 C1069.05692407 772.73420666 1069.05064373 775.71349594 1069.04321289 778.69287109 C1069.04232666 779.70127045 1069.04144043 780.7096698 1069.04052734 781.74862671 C1069.02550628 796.23196972 1068.83518169 810.67173807 1067.91821289 825.13037109 C1063.82164629 820.40586363 1060.79663638 815.10541176 1057.60571289 809.75537109 C1052.05439678 800.53692863 1046.30360085 791.47698397 1040.39013672 782.48730469 C1036.45102502 776.49543089 1032.59224293 770.46184728 1028.79321289 764.38037109 C1022.76934135 754.77587661 1016.38555911 745.4400992 1009.91821289 736.13037109 C1009.27803223 735.20643555 1008.63785156 734.2825 1007.97827148 733.33056641 C1003.30585446 726.5871749 998.61725937 719.85522872 993.91821289 713.13037109 C993.37277832 712.34887695 992.82734375 711.56738281 992.26538086 710.76220703 C969.5580979 678.26146246 945.47587843 646.64169442 920.39477539 615.93896484 C919.08773748 614.3380163 917.78397933 612.73439133 916.48071289 611.13037109 C912.0516909 605.68900122 907.55144073 600.31387715 903.00585938 594.9699707 C900.07512748 591.51858422 897.20092058 588.02800919 894.35571289 584.50537109 C890.53557972 579.80681158 886.50110033 575.34823343 882.39868164 570.89599609 C879.91357057 568.12519509 877.56376956 565.27985748 875.23071289 562.38037109 C872.19127688 558.6144618 869.05226873 555.14582948 865.57836914 551.78271484 C863.87437063 550.08673515 862.30107206 548.32547413 860.73071289 546.50537109 C856.17782088 541.23731242 851.43987813 536.14460498 846.69894409 531.04667664 C845.55896071 529.81990166 844.42011851 528.59206464 843.28274536 527.36286926 C831.69840741 514.85443776 819.70889757 502.764743 807.64282227 490.72460938 C804.93224263 488.01979168 802.22626999 485.31041587 799.52153778 482.59975243 C797.40251112 480.47709335 795.28108569 478.35684446 793.15895081 476.23729324 C792.16002916 475.23903007 791.1618257 474.24004762 790.16441345 473.24027634 C785.1282056 468.19474357 780.07051389 463.24546278 774.63317871 458.6312561 C772.81150724 457.03698561 771.11274345 455.35848518 769.41821289 453.63037109 C766.47221074 450.63802734 763.38838282 447.87712937 760.20727539 445.13818359 C757.98265485 443.18689527 755.8068526 441.18883845 753.63769531 439.17626953 C748.47578364 434.38864787 743.18737731 429.85843442 737.69946289 425.44287109 C734.67800138 422.93064467 731.79401997 420.30614211 728.91821289 417.63037109 C724.33890987 413.37506496 719.6253528 409.3571442 714.75415039 405.43505859 C712.21582175 403.37222954 709.71962301 401.27165712 707.23364258 399.14672852 C700.57492152 393.45565904 693.76260313 387.99520364 686.84301758 382.62548828 C684.81537352 381.05048927 682.79229056 379.46976243 680.76977539 377.88818359 C658.4048157 360.35829742 658.4048157 360.35829742 635.40818787 343.67628479 C631.17113735 340.72690286 626.97735326 337.7272147 622.81185913 334.67776489 C612.35339606 327.03667646 601.62981473 319.84612907 590.79321289 312.75537109 C589.89713318 312.16742767 589.00105347 311.57948425 588.07781982 310.97372437 C541.8685582 280.65695257 494.09720611 253.33536499 444.91821289 228.13037109 C443.99395508 227.65390137 443.06969727 227.17743164 442.11743164 226.68652344 C425.63069187 218.20195866 408.76963769 210.56579983 391.84967041 202.99487305 C390.04365026 202.18651567 388.23846824 201.37628649 386.43334961 200.56591797 C370.40961764 193.38411561 354.24166824 186.60141192 337.91821289 180.13037109 C337.23581543 179.85922485 336.55341797 179.58807861 335.8503418 179.30871582 C307.50504678 168.05567899 278.80115191 157.91249991 249.91821289 148.13037109 C248.95840515 147.80529572 247.99859741 147.48022034 247.00970459 147.14529419 C244.18348499 146.19023775 241.3558828 145.2394186 238.52758789 144.29052734 C237.27490616 143.86809753 237.27490616 143.86809753 235.99691772 143.43713379 C229.18639405 141.1632595 222.30249091 139.24259915 215.37133789 137.37646484 C210.7151491 136.10145816 206.13386637 134.62141308 201.54321289 133.13037109 C193.47172098 130.52438478 185.33482193 128.38549621 177.09008789 126.40380859 C170.97587338 124.92381718 164.90656951 123.27462954 158.83135986 121.64361572 C93.88214165 104.21952971 27.54107354 92.1034327 -39.08178711 83.13037109 C-39.80970459 83.03151611 -40.53762207 82.93266113 -41.28759766 82.83081055 C-72.03644175 78.66556268 -102.89942592 75.96823391 -133.81729126 73.40408325 C-137.0195702 73.13558768 -140.22102127 72.85877141 -143.42236328 72.5793457 C-156.03152759 71.48620118 -168.6262683 70.64238596 -181.26928711 70.06787109 C-183.03768781 69.98415314 -184.8060796 69.90024694 -186.57446289 69.81616211 C-198.34200776 69.2643823 -210.11116568 68.80129428 -221.88720703 68.47192383 C-228.65169334 68.27126271 -235.35001299 67.82800332 -242.08178711 67.13037109 C-238.61185726 63.50009329 -235.00361697 60.40337974 -230.89428711 57.50537109 C-230.29334229 57.08006104 -229.69239746 56.65475098 -229.07324219 56.21655273 C-221.31244156 50.80302692 -213.25294796 45.89523647 -205.08178711 41.13037109 C-204.41904785 40.73994629 -203.75630859 40.34952148 -203.07348633 39.94726562 C-182.40171468 27.91179363 -159.19435479 19.97973391 -136.08178711 14.13037109 C-135.05843262 13.8691748 -134.03507813 13.60797852 -132.98071289 13.33886719 C-111.30389397 7.94382186 -89.25202772 5.4982478 -67.08178711 3.13037109 C-65.88070312 3.00146484 -64.67961914 2.87255859 -63.44213867 2.73974609 C-42.32232503 0.52838511 -21.22559445 -0.03743237 0 0 Z " fill="#AFEF79" transform="translate(684.081787109375,402.86962890625)"/>
<path d="M0 0 C1.09882507 -0.00090637 2.19765015 -0.00181274 3.32977295 -0.00274658 C24.34603234 -0.00078248 45.3829032 0.40587247 66.3125 2.4375 C66.9591864 2.49863983 67.6058728 2.55977966 68.27215576 2.62277222 C82.97850112 4.02642481 97.5425249 6.26698932 112.12402344 8.61010742 C115.76330382 9.17979885 119.40642707 9.70224271 123.0546875 10.2109375 C152.60783389 14.39157585 182.63806439 21.14094574 211.05615234 30.30957031 C214.44174897 31.38792332 217.8397782 32.424217 221.23828125 33.4609375 C293.42705222 55.54659231 364.08594629 86.9243523 426.97558594 128.9609375 C428.83443156 130.20214436 430.70135958 131.43032551 432.5703125 132.65625 C453.813088 146.63641991 474.50096403 161.54227772 494.08886719 177.76367188 C496.52480065 179.77590473 498.98292475 181.7605775 501.4375 183.75 C511.61500416 192.09646893 521.51903384 200.71656869 531.15893555 209.67749023 C532.34573403 210.76125646 533.5469206 211.8293458 534.75708008 212.88696289 C543.03943921 220.17163992 550.77697307 228.00115115 558.56323242 235.80786133 C561.00131632 238.25131922 563.44471789 240.68936807 565.88867188 243.12695312 C567.46125833 244.70020021 569.03353464 246.27375737 570.60546875 247.84765625 C571.32542526 248.56558853 572.04538177 249.28352081 572.78715515 250.02320862 C576.78864134 254.04302969 580.62127372 258.15683147 584.32029724 262.45718384 C586.38836001 264.855251 588.53888073 267.17413773 590.6875 269.5 C595.13938655 274.38637998 599.3455313 279.42285543 603.49316406 284.56787109 C604.96714863 286.37734808 606.46240254 288.16783605 607.9609375 289.95703125 C616.33162516 299.97386243 624.28528224 310.24877932 632.02490234 320.76025391 C633.1676593 322.31191871 634.31351982 323.86130571 635.46337891 325.40771484 C660.35214782 358.8862096 682.36510765 395.18426691 700.59228516 432.69824219 C702.07738847 435.72787671 703.59315518 438.74166958 705.10546875 441.7578125 C719.52371784 470.68991569 731.32700177 500.62404334 741.8125 531.1875 C742.38893928 532.83737367 742.96572962 534.48712475 743.54296875 536.13671875 C748.52743552 550.55012219 752.60377253 565.27902565 755.8125 580.1875 C752.26830438 577.51704705 749.53370866 574.80967832 746.8125 571.3125 C742.59073446 566.03882297 738.09582767 561.09989417 733.47509766 556.17480469 C730.1072196 552.58437962 726.8165887 548.9477599 723.59765625 545.22265625 C719.91120599 541.01994162 716.10145697 536.9270563 712.3125 532.81689453 C710.77819653 531.15023741 709.24817833 529.47972477 707.71875 527.80859375 C702.82062192 522.46644273 697.88926371 517.20263072 692.71607971 512.1235199 C690.99813112 510.37629459 689.41221329 508.58587037 687.83178711 506.71508789 C682.7698279 500.89581784 677.27261736 495.50352793 671.81640625 490.05859375 C670.65715727 488.89866945 669.49805663 487.73859688 668.33909607 486.5783844 C665.92096178 484.1587839 663.5010492 481.74098029 661.07983398 479.32446289 C657.99573528 476.24606078 654.91614906 473.16318977 651.83789158 470.07894802 C649.44862967 467.68605131 647.05696486 465.29556762 644.66459465 462.90577888 C643.52890839 461.77075383 642.39394814 460.63500181 641.25976753 459.49847221 C635.76957195 453.99939989 630.2806542 448.54824635 624.3558197 443.51063538 C622.40134142 441.83500112 620.60004016 440.03888088 618.8125 438.1875 C615.73004495 435.06339016 612.53740228 432.16048912 609.2109375 429.30078125 C606.02103047 426.49013026 602.91994109 423.58870586 599.8125 420.6875 C594.39384717 415.63755948 588.91473365 410.69154578 583.28222656 405.88037109 C581.50029854 404.35815933 579.71881399 402.83543026 577.9375 401.3125 C577.32865967 400.79252441 576.71981934 400.27254883 576.0925293 399.73681641 C572.55549739 396.70805224 569.06823515 393.63570537 565.625 390.5 C561.44365567 386.70682607 557.12212022 383.12531764 552.734375 379.57421875 C549.53838643 376.96359172 546.39191193 374.30015034 543.25 371.625 C538.7285084 367.78341213 534.16268346 364.01294729 529.51171875 360.328125 C527.48628163 358.72184491 525.46893582 357.10744304 523.45703125 355.484375 C514.7952253 348.5044844 506.01310561 341.69893257 497.15478516 334.97070312 C494.66487529 333.07511196 492.18159877 331.1710647 489.69921875 329.265625 C478.53963375 320.71014903 467.27419915 312.33381007 455.8125 304.1875 C455.11737305 303.69330566 454.42224609 303.19911133 453.70605469 302.68994141 C449.48330247 299.69216242 445.24938453 296.71060749 441.01074219 293.73535156 C438.7754636 292.1614215 436.54749039 290.57755499 434.3203125 288.9921875 C419.74678277 278.65560793 404.81171925 268.89047253 389.8125 259.1875 C388.82459473 258.54780273 387.83668945 257.90810547 386.81884766 257.24902344 C354.27426112 236.22621943 320.78231321 216.80769875 286.8125 198.1875 C285.74467285 197.6006543 284.6768457 197.01380859 283.57666016 196.40917969 C252.63494319 179.45494304 220.98966725 163.65911791 188.8125 149.1875 C187.55590519 148.61916442 186.2993973 148.05063663 185.04296875 147.48193359 C136.01070555 125.32277645 85.85851072 106.19498762 35.00306702 88.67663574 C31.00784347 87.29898803 27.01722379 85.91014489 23.03515625 84.49487305 C22.2710997 84.22336929 21.50704315 83.95186554 20.71983337 83.6721344 C19.29968415 83.1662717 17.88015967 82.65864957 16.46144104 82.14878845 C11.11730645 80.24426182 5.70919079 78.68199644 0.2421875 77.17578125 C-3.27831451 76.16133135 -6.72392671 75.00618226 -10.1875 73.8125 C-17.2903975 71.40561142 -24.47234037 69.42613583 -31.71630859 67.4909668 C-37.95395226 65.81801303 -44.13914806 64.02046101 -50.3125 62.125 C-57.77535854 59.84359655 -65.2760233 57.85234825 -72.85717773 56.00488281 C-78.06407857 54.73261298 -83.22288499 53.35189908 -88.375 51.875 C-111.3611835 45.38196335 -134.71563653 40.34811364 -158.09320068 35.50306702 C-159.24782806 35.26371681 -159.24782806 35.26371681 -160.42578125 35.01953125 C-161.18151428 34.86290512 -161.93724731 34.70627899 -162.71588135 34.54490662 C-172.23765148 32.56390608 -181.71732329 30.40075478 -191.1875 28.1875 C-188.14310827 26.15790551 -186.02928924 25.48802724 -182.515625 24.6015625 C-181.38471436 24.31273193 -180.25380371 24.02390137 -179.08862305 23.72631836 C-177.88375244 23.4247583 -176.67888184 23.12319824 -175.4375 22.8125 C-172.94906301 22.18160356 -170.46078009 21.55009908 -167.97265625 20.91796875 C-166.7830127 20.61681152 -165.59336914 20.3156543 -164.36767578 20.00537109 C-161.94211299 19.38156982 -159.52876088 18.73914957 -157.12109375 18.05078125 C-132.70205078 11.08650546 -107.31196204 7.54175047 -82.1875 4.1875 C-81.27564941 4.06391113 -80.36379883 3.94032227 -79.42431641 3.81298828 C-74.02234096 3.10015725 -68.62037483 2.59743856 -63.1875 2.1875 C-62.05570313 2.09871582 -60.92390625 2.00993164 -59.7578125 1.91845703 C-39.84193624 0.42123155 -19.96969666 -0.00105781 0 0 Z " fill="#C5F361" transform="translate(1018.1875,231.8125)"/>
<path d="M0 0 C1.20092789 0.00190338 1.20092789 0.00190338 2.42611694 0.00384521 C26.5101658 0.07645531 49.30224135 3.11185026 72.8125 8.1875 C73.84955078 8.40889648 74.88660156 8.63029297 75.95507812 8.85839844 C113.2784005 17.00326603 150.11513286 31.47817437 184.8125 47.1875 C185.86131348 47.65849121 186.91012695 48.12948242 187.99072266 48.61474609 C215.17776439 60.85874055 241.70740337 74.33064404 267.28027344 89.67529297 C269.60613422 91.06426151 271.9430283 92.43061963 274.2890625 93.78515625 C292.67184974 104.40983482 310.39782199 116.0514921 327.8125 128.1875 C328.53775879 128.68991211 329.26301758 129.19232422 330.01025391 129.70996094 C340.85520617 137.22684555 351.40040212 145.08301653 361.8125 153.1875 C362.44849121 153.68169434 363.08448242 154.17588867 363.73974609 154.68505859 C379.62741576 167.04675499 395.16067987 179.82144578 409.921875 193.515625 C411.7521556 195.20739788 413.59454074 196.88624646 415.453125 198.546875 C422.56859024 204.93046382 429.35890174 211.62579535 436.125 218.375 C436.60112732 218.84853912 437.07725464 219.32207825 437.56781006 219.80996704 C443.20909544 225.42705916 448.64401213 231.13404686 453.8125 237.1875 C454.8337946 238.34434326 455.8571984 239.49932825 456.8828125 240.65234375 C464.98455328 249.83326633 472.51532853 259.35782318 479.8125 269.1875 C480.25158691 269.77321777 480.69067383 270.35893555 481.14306641 270.96240234 C486.77808273 278.5014078 491.89060773 286.32930124 496.875 294.3125 C497.73448242 295.68293457 497.73448242 295.68293457 498.61132812 297.08105469 C499.14306641 297.94375977 499.67480469 298.80646484 500.22265625 299.6953125 C500.69840088 300.46504395 501.17414551 301.23477539 501.66430664 302.02783203 C502.76484138 304.09785761 503.36198773 305.89688093 503.8125 308.1875 C480.07110755 307.7433583 456.56527645 301.41976866 433.54736328 296.05175781 C429.96119506 295.22190845 426.37070145 294.41526074 422.77734375 293.6171875 C411.24012404 291.04044419 399.89054553 288.1866178 388.60546875 284.6640625 C384.68501483 283.44055715 380.74369891 282.32744741 376.78271484 281.24365234 C331.7006826 268.81245349 288.76008854 250.70526537 246.8125 230.1875 C245.93255371 229.76114258 245.05260742 229.33478516 244.14599609 228.89550781 C230.37423521 222.22005501 217.05173352 214.86039863 203.8125 207.1875 C203.00973633 206.72714355 202.20697266 206.26678711 201.37988281 205.79248047 C189.59191053 199.01626553 178.24829883 191.59845584 166.9375 184.0625 C165.89326874 183.36738815 165.89326874 183.36738815 164.82794189 182.65823364 C152.40272168 174.37334753 140.13529327 165.88125606 128.3125 156.75 C127.60311279 156.2041626 126.89372559 155.6583252 126.1628418 155.09594727 C124.04371752 153.4628063 121.92790161 151.82545844 119.8125 150.1875 C118.87591553 149.46578613 118.87591553 149.46578613 117.92041016 148.72949219 C110.72508467 143.18086778 103.70936686 137.47141423 96.84423828 131.51831055 C93.45334692 128.57918966 90.01415922 125.72971715 86.5 122.9375 C79.28458817 117.07828893 72.64876574 110.58845248 65.921875 104.18359375 C64.00287937 102.3676553 62.06972496 100.56955143 60.125 98.78125 C52.52283224 91.78763015 45.12743588 84.60648891 37.8125 77.3125 C36.48557129 75.99245972 36.48557129 75.99245972 35.13183594 74.64575195 C30.74544404 70.24894008 26.50366469 65.79274355 22.45703125 61.08154297 C19.66558497 57.86657263 16.73224476 54.78555904 13.8125 51.6875 C9.04638945 46.60157066 4.32864179 41.49824134 -0.1875 36.1875 C-1.00347656 35.23875 -1.81945312 34.29 -2.66015625 33.3125 C-8.06221124 27.00479218 -13.30301536 20.59326281 -18.39550781 14.03271484 C-18.81928711 13.48695801 -19.24306641 12.94120117 -19.6796875 12.37890625 C-20.08928711 11.85055176 -20.49888672 11.32219727 -20.92089844 10.77783203 C-22.24410914 9.11642214 -23.62149137 7.51127513 -25.0078125 5.90234375 C-27.1875 3.1875 -27.1875 3.1875 -27.1875 1.1875 C-18.1251144 0.06033761 -9.1161034 -0.01482274 0 0 Z " fill="#32D8FE" transform="translate(416.1875,1457.8125)"/>
</svg>
