<?xml version="1.0" encoding="UTF-8"?>
<svg version="1.1" xmlns="http://www.w3.org/2000/svg" width="565" height="653">
<path d="M0 0 C3.72808001 1.84772078 7.26209233 3.95859545 10.8125 6.125 C12.96694207 7.41100407 15.12190794 8.69613094 17.27734375 9.98046875 C18.38706543 10.6461084 19.49678711 11.31174805 20.64013672 11.99755859 C26.01808459 15.20275612 31.44650634 18.31894242 36.875 21.4375 C39.06002503 22.69639036 41.2449202 23.95550615 43.4296875 25.21484375 C45.05729004 26.15239502 45.05729004 26.15239502 46.71777344 27.10888672 C52.14659942 30.23680148 57.57319281 33.36858448 63 36.5 C65.16665583 37.75001879 67.3333225 39.00001878 69.5 40.25 C82.5 47.75 95.5 55.25 108.5 62.75 C109.57266113 63.36883057 110.64532227 63.98766113 111.75048828 64.62524414 C113.91557071 65.87435518 116.08060982 67.12354129 118.24560547 68.37280273 C123.68615706 71.51202309 129.12747216 74.64990563 134.5703125 77.78515625 C145.02206272 83.80747371 155.46293853 89.84678996 165.875 95.9375 C178.0689795 103.06796413 190.33317048 110.07264574 202.60644531 117.06542969 C208.40702492 120.37217737 214.20341263 123.68626056 220 127 C218.20851506 132.37445483 211.99089677 134.45665609 207.23632812 137.17211914 C205.25998161 138.30676941 203.30221338 139.46958828 201.34375 140.63476562 C200.08957446 141.35856339 198.83439656 142.08062762 197.578125 142.80078125 C196.43762695 143.46247314 195.29712891 144.12416504 194.12207031 144.8059082 C191 146 191 146 188.42382812 145.3815918 C187.62396484 144.9256665 186.82410156 144.46974121 186 144 C185.14438477 143.55333984 184.28876953 143.10667969 183.40722656 142.64648438 C182.49424805 142.13408203 181.58126953 141.62167969 180.640625 141.09375 C179.61654541 140.52019775 178.59246582 139.94664551 177.53735352 139.35571289 C176.45252686 138.74332764 175.3677002 138.13094238 174.25 137.5 C173.12327881 136.86634521 171.99655762 136.23269043 170.83569336 135.57983398 C164.04482257 131.74999436 157.29015254 127.86664399 150.5847168 123.8894043 C144.27275405 120.14695296 137.92055359 116.476019 131.5625 112.8125 C130.45672607 112.17521973 129.35095215 111.53793945 128.21166992 110.88134766 C124.8080747 108.9203862 121.40408111 106.96011785 118 105 C113.62449212 102.48004706 109.24943866 99.95930859 104.875 97.4375 C103.25742798 96.50502441 103.25742798 96.50502441 101.60717773 95.55371094 C94.43241198 91.41377995 87.27496657 87.2450821 80.125 83.0625 C70.85733917 77.64215502 61.54640471 72.30059615 52.21859741 66.98480225 C43.93307311 62.26180715 35.67225235 57.49864408 27.4375 52.6875 C26.46458008 52.12087646 25.49166016 51.55425293 24.48925781 50.97045898 C19.7828279 48.22636968 15.09223315 45.46003049 10.42578125 42.6484375 C9.55058838 42.12677002 8.67539551 41.60510254 7.77368164 41.06762695 C6.13782665 40.09200095 4.50767762 39.10671758 2.88452148 38.11010742 C1.80473022 37.46972534 1.80473022 37.46972534 0.703125 36.81640625 C0.08083008 36.43943604 -0.54146484 36.06246582 -1.18261719 35.67407227 C-3.54422908 34.79814394 -4.65744482 35.14428786 -7 36 C-9.62161921 37.34901706 -12.18605087 38.73611763 -14.75 40.1875 C-15.53439453 40.62747314 -16.31878906 41.06744629 -17.12695312 41.52075195 C-25.69498363 46.34983908 -34.17743241 51.32668655 -42.6640625 56.296875 C-49.05281992 60.03634589 -55.46116076 63.74125034 -61.875 67.4375 C-62.95458984 68.05971436 -64.03417969 68.68192871 -65.14648438 69.32299805 C-67.3368252 70.58511517 -69.52725502 71.84707785 -71.71777344 73.10888672 C-77.14659942 76.23680148 -82.57319281 79.36858448 -88 82.5 C-90.16665583 83.75001879 -92.3333225 85.00001878 -94.5 86.25 C-95.5725 86.86875 -96.645 87.4875 -97.75 88.125 C-185.5 138.75 -185.5 138.75 -188.75048828 140.62524414 C-190.91557071 141.87435518 -193.08060982 143.12354129 -195.24560547 144.37280273 C-200.68615706 147.51202309 -206.12747216 150.64990563 -211.5703125 153.78515625 C-213.75521193 155.04426459 -215.94010779 156.30337914 -218.125 157.5625 C-219.18525391 158.17295166 -220.24550781 158.78340332 -221.33789062 159.41235352 C-226.87215172 162.60282634 -232.39409569 165.81287582 -237.8984375 169.0546875 C-239.00687012 169.70622803 -240.11530273 170.35776855 -241.25732422 171.02905273 C-243.37837494 172.2773778 -245.49728476 173.52934949 -247.61376953 174.78540039 C-248.55591309 175.3396167 -249.49805664 175.89383301 -250.46875 176.46484375 C-251.71301758 177.20142212 -251.71301758 177.20142212 -252.98242188 177.95288086 C-255 179 -255 179 -257 179 C-257.42221001 215.96037347 -257.71741047 252.91969623 -257.84338564 289.88230831 C-257.85838149 294.25048121 -257.87442385 298.61864967 -257.89111328 302.98681641 C-257.89441812 303.85640357 -257.89772295 304.72599074 -257.90112793 305.62192903 C-257.95706595 319.68465395 -258.09768422 333.74531273 -258.2698617 347.80703999 C-258.44477026 362.24656409 -258.528069 376.68454478 -258.52715683 391.12513816 C-258.5294575 400.03040908 -258.60233334 408.92926344 -258.76689976 417.8330382 C-258.8730459 423.94722545 -258.88981723 430.05769054 -258.83786327 436.17255975 C-258.81049878 439.69855297 -258.82101647 443.21310367 -258.93830681 446.73750305 C-259.41994626 459.20078674 -259.41994626 459.20078674 -256 471 C-250.12938183 477.1554033 -242.52925356 480.5804797 -234.78054237 483.81151175 C-231.27141843 485.31141789 -228.13334063 487.128707 -224.8828125 489.12109375 C-222.96389348 490.22717308 -221.04463128 491.33265727 -219.125 492.4375 C-216.94009462 493.69659802 -214.75519908 494.95571311 -212.5703125 496.21484375 C-211.48524414 496.83987793 -210.40017578 497.46491211 -209.28222656 498.10888672 C-203.85340058 501.23680148 -198.42680719 504.36858448 -193 507.5 C-190.83334417 508.75001879 -188.6666775 510.00001878 -186.5 511.25 C-147.5 533.75 -108.5 556.25 -69.5 578.75 C-68.42693604 579.36907227 -67.35387207 579.98814453 -66.24829102 580.62597656 C-64.08731012 581.87270256 -61.92634002 583.11944727 -59.76538086 584.36621094 C-54.26181149 587.54145883 -48.75803968 590.71635495 -43.25390625 593.890625 C-42.14362061 594.53136963 -41.03333496 595.17211426 -39.8894043 595.83227539 C-37.69561241 597.09684098 -35.50049027 598.35910201 -33.30395508 599.61889648 C-28.27283885 602.50852173 -23.26888382 605.42787942 -18.3203125 608.45703125 C-17.44818115 608.98393555 -16.5760498 609.51083984 -15.67749023 610.05371094 C-14.06615471 611.03008642 -12.46337046 612.02077699 -10.87133789 613.02832031 C-9.81160767 613.66592285 -9.81160767 613.66592285 -8.73046875 614.31640625 C-8.12614014 614.69224854 -7.52181152 615.06809082 -6.89916992 615.45532227 C-3.33907249 616.47635034 -0.55356267 614.29749141 2.54174805 612.6340332 C3.43933838 612.11156006 4.33692871 611.58908691 5.26171875 611.05078125 C6.28458984 610.4578125 7.30746094 609.86484375 8.36132812 609.25390625 C9.45896484 608.61324219 10.55660156 607.97257813 11.6875 607.3125 C12.84940348 606.6376662 14.01151671 605.96319344 15.17382812 605.2890625 C17.5872404 603.88892911 19.9997446 602.48724981 22.41162109 601.08447266 C27.93267071 597.87508732 33.46701601 594.68874937 39 591.5 C41.16672909 590.2501082 43.33339556 589.00010785 45.5 587.75 C188.50000002 505.24999999 188.50000002 505.24999999 191.75341797 503.37304688 C193.90871311 502.1295949 196.06398673 500.88610564 198.21923828 499.64257812 C203.22337674 496.75537125 208.2277052 493.8684957 213.23284912 490.98303223 C214.98341241 489.97380896 216.73390411 488.96446164 218.484375 487.95507812 C220.66392165 486.6983234 222.84359832 485.44179414 225.0234375 484.18554688 C226.02375 483.60869141 227.0240625 483.03183594 228.0546875 482.4375 C229.02631836 481.87804687 229.99794922 481.31859375 230.99902344 480.7421875 C233.12353665 479.5088222 235.24069131 478.26274096 237.35253906 477.0078125 C238.4350293 476.36585938 239.51751953 475.72390625 240.6328125 475.0625 C241.6139502 474.47597656 242.59508789 473.88945312 243.60595703 473.28515625 C246 472 246 472 248 472 C248 396.43 248 320.86 248 243 C253.94 239.7 259.88 236.4 266 233 C270.13988933 230.5046298 270.13988933 230.5046298 274.25 227.9609375 C276 227 276 227 278 227 C278 313.79 278 400.58 278 490 C268.76 495.28 259.52 500.56 250 506 C240.98904238 511.2485178 240.98904238 511.2485178 231.984375 516.5078125 C222.44177067 522.08429156 212.85942207 527.59211491 203.28222656 533.10888672 C197.85340058 536.23680148 192.42680719 539.36858448 187 542.5 C184.83334417 543.75001879 182.6666775 545.00001878 180.5 546.25 C178.89125 547.178125 178.89125 547.178125 177.25 548.125 C139.33333333 570 101.41666667 591.875 63.5 613.75 C62.42709717 614.3689917 61.35419434 614.9879834 60.2487793 615.62573242 C58.08621417 616.8733474 55.92361661 618.12090616 53.76098633 619.3684082 C47.16978538 623.17062316 40.57963904 626.97465462 33.9909668 630.78125 C31.80999576 632.0397691 29.62788783 633.2963203 27.44458008 634.55078125 C22.23249027 637.54618938 17.03758549 640.56446613 11.875 643.64453125 C10.43314331 644.49494995 10.43314331 644.49494995 8.9621582 645.36254883 C7.16205154 646.42487311 5.36844147 647.4983137 3.58276367 648.5847168 C2.78588135 649.05176025 1.98899902 649.51880371 1.16796875 650 C0.47985107 650.4125 -0.2082666 650.825 -0.91723633 651.25 C-3.69601078 652.25063241 -5.19693266 651.87005699 -8 651 C-10.32641602 649.85522461 -10.32641602 649.85522461 -12.75390625 648.40234375 C-14.13739258 647.5834668 -14.13739258 647.5834668 -15.54882812 646.74804688 C-16.54333984 646.15056641 -17.53785156 645.55308594 -18.5625 644.9375 C-20.72971204 643.65366966 -22.89771303 642.37117043 -25.06640625 641.08984375 C-26.76821045 640.08219971 -26.76821045 640.08219971 -28.50439453 639.05419922 C-33.71490322 635.98204525 -38.97422492 632.99540439 -44.23214722 630.00540161 C-54.50078475 624.16548959 -64.72777416 618.25833545 -74.921875 612.2890625 C-82.58573974 607.80833735 -90.28685835 603.39505776 -98 599 C-107.72124506 593.46014067 -117.40894868 587.86625068 -127.06689453 582.21655273 C-137.59084625 576.06233258 -148.15380137 569.97630004 -158.71777344 563.89111328 C-164.14659942 560.76319852 -169.57319281 557.63141552 -175 554.5 C-177.16665583 553.24998121 -179.3333225 551.99998122 -181.5 550.75 C-220.49999999 528.25000001 -220.49999999 528.25000001 -223.7512207 526.37426758 C-225.91378583 525.1266526 -228.07638339 523.87909384 -230.23901367 522.6315918 C-235.71870371 519.47056551 -241.19779358 516.30850691 -246.67578125 513.14453125 C-247.78759766 512.50257813 -248.89941406 511.860625 -250.04492188 511.19921875 C-252.10764131 510.00819246 -254.17016747 508.81683131 -256.23242188 507.625 C-266.46885408 501.71544723 -276.73715239 495.86448435 -287 490 C-287 381.43 -287 272.86 -287 161 C-274 153.5 -261 146 -248 138.5 C-245.85757813 137.26378906 -243.71515625 136.02757812 -241.5078125 134.75390625 C-237.14934612 132.23930564 -232.78987809 129.72645339 -228.4296875 127.21484375 C-217.97793801 121.19252671 -207.53700452 115.15330663 -197.125 109.0625 C-187.85436069 103.64041301 -178.54063301 98.29675988 -169.20953369 92.97976685 C-161.11292157 88.36515971 -153.04211199 83.70915114 -145 79 C-136.36502443 73.94369077 -127.69393681 68.95392878 -119 64 C-109.27875494 58.46014067 -99.59105132 52.86625068 -89.93310547 47.21655273 C-82.67788243 42.97382709 -75.40643928 38.76006757 -68.125 34.5625 C-67.04750488 33.94125244 -65.97000977 33.32000488 -64.85986328 32.67993164 C-59.35861973 29.50922982 -53.85560736 26.34161733 -48.3515625 23.17578125 C-47.25803467 22.54599365 -46.16450684 21.91620605 -45.0378418 21.26733398 C-42.86352003 20.01589209 -40.68792027 18.76666776 -38.51098633 17.51977539 C-33.19794034 14.46691059 -27.93069648 11.36200978 -22.72265625 8.1328125 C-21.72588867 7.52131348 -20.72912109 6.90981445 -19.70214844 6.27978516 C-17.82945934 5.12636309 -15.96608329 3.95762549 -14.11425781 2.77099609 C-9.02532658 -0.34850109 -5.95584064 -2.05058548 0 0 Z " fill="#5D73EC" transform="translate(287,1)"/>
<path d="M0 0 C18.75970588 -0.04528301 37.51936697 -0.08206806 56.27911377 -0.10362434 C64.99110888 -0.11390279 73.70306743 -0.12789687 82.41503906 -0.15087891 C90.01528386 -0.17091853 97.61550215 -0.18374132 105.21577263 -0.18817699 C109.23378662 -0.19076661 113.25172484 -0.1967803 117.26971436 -0.21146011 C121.06505941 -0.22521185 124.86029874 -0.22918783 128.65566635 -0.22621536 C130.68510042 -0.22701299 132.71452345 -0.23768126 134.743927 -0.24884033 C164.60997112 -0.1831753 189.58240055 8.61815614 211 30 C223.38480157 43.6392474 232.57871826 60.57310264 235 79 C235.10957031 79.81726563 235.21914063 80.63453125 235.33203125 81.4765625 C238.35994832 107.5570215 231.74886978 132.54251159 215.6875 153.3125 C207.30172537 163.73821428 197.72451255 171.53778408 186 178 C185.12988281 178.48339844 184.25976562 178.96679688 183.36328125 179.46484375 C177.93380263 182.20036973 172.39408541 183.82086704 166.5 185.1875 C165.84362549 185.34250977 165.18725098 185.49751953 164.51098633 185.65722656 C148.32033896 189.10532175 131.83482065 189.28387329 115.36328125 189.1953125 C113.49621704 189.19236094 111.62915116 189.19032738 109.76208496 189.18920898 C102.94553091 189.17885054 96.12901261 189.1509292 89.3125 189.125 C74.029375 189.08375 58.74625 189.0425 43 189 C43 221.67 43 254.34 43 288 C28.81 288 14.62 288 0 288 C0 240.48 0 192.96 0 144 C70.6875 144.125 70.6875 144.125 92.9519043 144.18017578 C99.5765753 144.18686742 99.5765753 144.18686742 106.20124817 144.19088745 C109.1365414 144.19273986 112.07176122 144.20019109 115.0070343 144.21115112 C118.76576719 144.22499723 122.52439525 144.22895893 126.28315127 144.22614455 C128.29381387 144.22700646 130.30446522 144.23766643 132.31509686 144.2488575 C148.79570548 144.21159872 163.9399489 141.75795588 176.26171875 129.9375 C187.81205182 117.0634209 190.83088721 104.10677827 190.17480469 87.32470703 C189.52316749 78.65866036 185.76611476 71.94250842 180.5859375 65.15625 C179 63 179 63 178.0390625 60.84375 C176.70449979 58.47565376 175.45490353 58.09601864 173 57 C171.51165674 55.88716876 170.03327725 54.760946 168.5625 53.625 C158.1828444 46.37154068 147.10247589 45.40505676 134.75463867 45.45410156 C133.2748965 45.44534351 131.79516377 45.43485005 130.31544495 45.42277527 C126.34105797 45.39516732 122.36698382 45.39150493 118.39251494 45.39249516 C114.2231398 45.38934412 110.0539011 45.36368084 105.88459778 45.34051514 C98.00852129 45.30011809 90.13252725 45.27965298 82.25636321 45.26654124 C73.28155197 45.25061566 64.30687994 45.21217695 55.33214986 45.17194796 C36.88811916 45.0897722 18.44417712 45.03851183 0 45 C0 30.15 0 15.3 0 0 Z " fill="#4A6DF8" transform="translate(170,185)"/>
<path d="M0 0 C0.35078613 0.63164062 0.70157227 1.26328125 1.06298828 1.9140625 C7.58731503 13.64812861 14.15385815 25.35088421 20.9375 36.9375 C21.78296387 38.38213623 21.78296387 38.38213623 22.64550781 39.85595703 C23.81051339 41.84565528 24.97571836 43.8352368 26.14111328 45.82470703 C29.21999218 51.08395302 32.29415454 56.34583603 35.35305786 61.61672974 C36.35843719 63.34650338 37.36851164 65.07354537 38.37866211 66.80053711 C38.98331299 67.84346924 39.58796387 68.88640137 40.2109375 69.9609375 C40.75024902 70.88696777 41.28956055 71.81299805 41.84521484 72.76708984 C43 75 43 75 43 77 C26.17 77 9.34 77 -8 77 C-11.279375 71.3075 -11.279375 71.3075 -14.625 65.5 C-19.85743869 56.42725518 -25.10230244 47.36192385 -30.375 38.3125 C-30.95024414 37.32419189 -31.52548828 36.33588379 -32.11816406 35.31762695 C-34.66842812 30.9472681 -37.23498307 26.59027191 -39.875 22.2734375 C-40.30248535 21.57307373 -40.7299707 20.87270996 -41.17041016 20.15112305 C-41.94508321 18.88831491 -42.72555374 17.62903526 -43.51318359 16.37426758 C-45.18279108 13.65762495 -46 12.25994062 -46 9 C-45.27111572 8.90501221 -44.54223145 8.81002441 -43.79125977 8.7121582 C-30.5624576 6.95658353 -17.66476063 5.14151782 -4.96484375 0.953125 C-2 0 -2 0 0 0 Z " fill="#3C6EFE" transform="translate(361,393)"/>
<path d="M0 0 C1.92592924 0.97232046 3.81373891 2.02207559 5.66796875 3.125 C6.72564453 3.74890625 7.78332031 4.3728125 8.87304688 5.015625 C9.96681641 5.67046875 11.06058594 6.3253125 12.1875 7 C14.36831648 8.29195892 16.5492976 9.58363996 18.73046875 10.875 C20.17522583 11.73738281 20.17522583 11.73738281 21.64916992 12.6171875 C23.07441349 13.45554865 24.52103586 14.26051793 26 15 C28.69064099 46.37701335 28.69064099 46.37701335 24.49267578 53.58984375 C20.65620575 57.2075037 16.11958097 58.85583579 11.12011719 60.31445312 C8.16037402 61.27149582 5.80148316 62.87230944 3.25 64.625 C-0.07228463 66.78807021 -2.03311189 67.36004402 -6 67 C-8.72314453 65.74658203 -8.72314453 65.74658203 -11.6328125 64.0078125 C-12.68597656 63.38519531 -13.73914063 62.76257813 -14.82421875 62.12109375 C-15.91347656 61.46238281 -17.00273438 60.80367187 -18.125 60.125 C-19.22199219 59.47402344 -20.31898438 58.82304687 -21.44921875 58.15234375 C-25.34750792 55.83250296 -29.22516136 53.51655909 -33 51 C-33.2667616 48.23371085 -33.34804189 45.69380369 -33.29296875 42.9296875 C-33.28872391 42.13345978 -33.28447906 41.33723206 -33.28010559 40.51687622 C-33.26328834 37.96924271 -33.22563179 35.42239511 -33.1875 32.875 C-33.17245705 31.14975099 -33.15876796 29.42448961 -33.14648438 27.69921875 C-33.11337501 23.46584218 -33.06157285 19.23305441 -33 15 C-32.50709473 14.72849121 -32.01418945 14.45698242 -31.50634766 14.17724609 C-29.21150804 12.91173711 -26.91826085 11.64336753 -24.625 10.375 C-23.80169189 9.9214917 -22.97838379 9.4679834 -22.13012695 9.00073242 C-16.96830042 6.14288404 -11.93467788 3.16897175 -7.04296875 -0.13671875 C-4.26385901 -1.31106531 -2.8986994 -0.79657132 0 0 Z " fill="#B30CFB" transform="translate(539,147)"/>
</svg>
